<svg data-v-423bf9ae="" xmlns="http://www.w3.org/2000/svg" viewBox="0 0 812 90" class="iconLeft"><!----><!----><!----><g data-v-423bf9ae="" id="81b764fe-7aa2-4a8a-a78e-22efdf376a5d" fill="black" transform="matrix(5.988024248455585,0,0,5.988024248455585,81.57663538774722,-9.49101865937186)"><path d="M4.19 14.11Q3.07 14.11 2.22 13.74Q1.37 13.37 0.91 12.68Q0.45 11.98 0.45 11.07L0.45 11.07L0.45 10.89Q0.45 10.78 0.52 10.71Q0.59 10.64 0.70 10.64L0.70 10.64L2.48 10.64Q2.59 10.64 2.66 10.69Q2.73 10.74 2.73 10.81L2.73 10.81L2.73 10.98Q2.73 11.42 3.19 11.77Q3.64 12.12 4.35 12.12L4.35 12.12Q4.97 12.12 5.26 11.86Q5.56 11.59 5.56 11.24L5.56 11.24Q5.56 10.85 5.21 10.64Q4.87 10.43 3.99 10.15L3.99 10.15L3.68 10.05Q2.79 9.76 2.11 9.41Q1.44 9.07 0.97 8.46Q0.49 7.85 0.49 6.96L0.49 6.96Q0.49 6.09 0.95 5.44Q1.40 4.79 2.21 4.44Q3.01 4.09 4.03 4.09L4.03 4.09Q5.11 4.09 5.97 4.48Q6.83 4.87 7.32 5.59Q7.81 6.30 7.81 7.22L7.81 7.22L7.81 7.34Q7.81 7.45 7.74 7.52Q7.67 7.59 7.56 7.59L7.56 7.59L5.78 7.59Q5.67 7.59 5.60 7.55Q5.53 7.52 5.53 7.45L5.53 7.45L5.53 7.32Q5.53 6.83 5.10 6.45Q4.66 6.08 3.93 6.08L3.93 6.08Q3.39 6.08 3.08 6.30Q2.77 6.52 2.77 6.93L2.77 6.93Q2.77 7.24 2.97 7.44Q3.16 7.64 3.58 7.82Q3.99 7.99 4.84 8.27L4.84 8.27Q5.82 8.61 6.37 8.86Q6.92 9.11 7.40 9.68Q7.88 10.25 7.88 11.17L7.88 11.17Q7.88 12.05 7.42 12.72Q6.96 13.38 6.12 13.75Q5.28 14.11 4.19 14.11L4.19 14.11ZM13.38 8.37Q13.38 8.48 13.31 8.55Q13.24 8.62 13.13 8.62L13.13 8.62L11.97 8.62Q11.87 8.62 11.87 8.72L11.87 8.72L11.87 11.17Q11.87 11.97 12.52 11.97L12.52 11.97L12.95 11.97Q13.06 11.97 13.13 12.04Q13.20 12.11 13.20 12.22L13.20 12.22L13.20 13.69Q13.20 13.92 12.96 13.94L12.96 13.94Q12.32 13.97 12.05 13.97L12.05 13.97Q10.84 13.97 10.25 13.58Q9.66 13.19 9.65 12.12L9.65 12.12L9.65 8.72Q9.65 8.62 9.55 8.62L9.55 8.62L8.86 8.62Q8.75 8.62 8.68 8.55Q8.61 8.48 8.61 8.37L8.61 8.37L8.61 7.01Q8.61 6.90 8.68 6.83Q8.75 6.76 8.86 6.76L8.86 6.76L9.55 6.76Q9.65 6.76 9.65 6.66L9.65 6.66L9.65 5.08Q9.65 4.97 9.72 4.90Q9.79 4.83 9.90 4.83L9.90 4.83L11.62 4.83Q11.73 4.83 11.80 4.90Q11.87 4.97 11.87 5.08L11.87 5.08L11.87 6.66Q11.87 6.76 11.97 6.76L11.97 6.76L13.13 6.76Q13.24 6.76 13.31 6.83Q13.38 6.90 13.38 7.01L13.38 7.01L13.38 8.37ZM17.36 6.65Q18.28 6.65 19.04 6.96Q19.80 7.28 20.23 7.83Q20.66 8.39 20.66 9.06L20.66 9.06L20.66 13.75Q20.66 13.86 20.59 13.93Q20.52 14 20.41 14L20.41 14L18.59 14Q18.48 14 18.41 13.93Q18.34 13.86 18.34 13.75L18.34 13.75L18.34 13.47Q18.34 13.40 18.30 13.38Q18.27 13.37 18.23 13.43L18.23 13.43Q17.67 14.11 16.42 14.11L16.42 14.11Q15.32 14.11 14.66 13.59Q14 13.06 14 12.04L14 12.04Q14 10.96 14.75 10.37Q15.50 9.79 16.91 9.79L16.91 9.79L18.24 9.79Q18.34 9.79 18.34 9.69L18.34 9.69L18.34 9.45Q18.34 9.07 18.09 8.86Q17.85 8.64 17.40 8.64L17.40 8.64Q17.08 8.64 16.85 8.74Q16.62 8.85 16.52 9.03L16.52 9.03Q16.45 9.13 16.39 9.18Q16.32 9.23 16.23 9.21L16.23 9.21L14.35 8.97Q14.10 8.95 14.13 8.78L14.13 8.78Q14.20 8.18 14.63 7.69Q15.06 7.21 15.77 6.93Q16.48 6.65 17.36 6.65L17.36 6.65ZM17.12 12.45Q17.65 12.45 18.00 12.17Q18.34 11.90 18.34 11.45L18.34 11.45L18.34 11.14Q18.34 11.05 18.24 11.05L18.24 11.05L17.43 11.05Q16.90 11.05 16.61 11.23Q16.32 11.41 16.32 11.77L16.32 11.77Q16.32 12.08 16.53 12.26Q16.74 12.45 17.12 12.45L17.12 12.45ZM25.90 6.65Q26.99 6.65 27.69 7.34Q28.38 8.04 28.38 9.23L28.38 9.23L28.38 13.75Q28.38 13.86 28.31 13.93Q28.24 14 28.13 14L28.13 14L26.31 14Q26.19 14 26.12 13.93Q26.05 13.86 26.05 13.75L26.05 13.75L26.05 9.73Q26.05 9.24 25.80 8.94Q25.54 8.64 25.10 8.64L25.10 8.64Q24.67 8.64 24.40 8.94Q24.14 9.24 24.14 9.73L24.14 9.73L24.14 13.75Q24.14 13.86 24.07 13.93Q24.00 14 23.88 14L23.88 14L22.06 14Q21.95 14 21.88 13.93Q21.81 13.86 21.81 13.75L21.81 13.75L21.81 7.01Q21.81 6.90 21.88 6.83Q21.95 6.76 22.06 6.76L22.06 6.76L23.88 6.76Q24.00 6.76 24.07 6.83Q24.14 6.90 24.14 7.01L24.14 7.01L24.14 7.41Q24.14 7.48 24.17 7.49Q24.21 7.50 24.23 7.45L24.23 7.45Q24.81 6.65 25.90 6.65L25.90 6.65ZM36.23 8.58Q36.53 9.35 36.53 10.35L36.53 10.35Q36.53 11.27 36.30 11.96L36.30 11.96Q36.02 12.91 35.25 13.51Q34.48 14.11 33.57 14.11L33.57 14.11Q32.51 14.11 31.98 13.37L31.98 13.37Q31.93 13.31 31.90 13.33Q31.86 13.34 31.86 13.41L31.86 13.41L31.86 13.75Q31.86 13.86 31.79 13.93Q31.72 14 31.61 14L31.61 14L29.79 14Q29.68 14 29.61 13.93Q29.54 13.86 29.54 13.75L29.54 13.75L29.54 4.45Q29.54 4.34 29.61 4.27Q29.68 4.20 29.79 4.20L29.79 4.20L31.61 4.20Q31.72 4.20 31.79 4.27Q31.86 4.34 31.86 4.45L31.86 4.45L31.86 7.24Q31.86 7.31 31.90 7.32Q31.93 7.34 31.98 7.28L31.98 7.28Q32.51 6.64 33.57 6.64L33.57 6.64Q34.47 6.64 35.19 7.17Q35.91 7.71 36.23 8.58L36.23 8.58ZM33.80 11.55Q34.03 11.10 34.03 10.39L34.03 10.39Q34.03 9.63 33.78 9.17L33.78 9.17Q33.49 8.68 32.94 8.68L32.94 8.68Q32.42 8.68 32.13 9.16L32.13 9.16Q31.88 9.62 31.88 10.39L31.88 10.39Q31.88 11.09 32.12 11.54L32.12 11.54Q32.41 12.07 32.94 12.07L32.94 12.07Q33.50 12.07 33.80 11.55L33.80 11.55ZM41.02 12.14Q41.45 12.14 41.83 12.00Q42.20 11.87 42.45 11.65L42.45 11.65Q42.53 11.55 42.63 11.55L42.63 11.55Q42.71 11.55 42.80 11.65L42.80 11.65L43.67 12.68Q43.75 12.78 43.75 12.87L43.75 12.87Q43.75 12.96 43.67 13.05L43.67 13.05Q43.19 13.55 42.46 13.83Q41.73 14.11 40.91 14.11L40.91 14.11Q39.96 14.11 39.22 13.77Q38.49 13.43 38.01 12.81L38.01 12.81Q37.24 11.83 37.24 10.32L37.24 10.32Q37.24 9.65 37.39 9.06L37.39 9.06Q37.70 7.97 38.60 7.30Q39.49 6.64 40.70 6.64L40.70 6.64Q42.10 6.64 42.96 7.50Q43.82 8.37 44.09 9.93L44.09 9.93Q44.14 10.32 44.17 10.78L44.17 10.78Q44.17 11.03 43.92 11.03L43.92 11.03L39.69 11.03Q39.65 11.03 39.61 11.06Q39.58 11.09 39.59 11.14L39.59 11.14L39.68 11.42Q39.82 11.76 40.17 11.95Q40.52 12.14 41.02 12.14L41.02 12.14ZM40.66 8.64Q39.94 8.64 39.69 9.32L39.69 9.32Q39.63 9.46 39.62 9.53L39.62 9.53L39.62 9.56Q39.62 9.65 39.72 9.65L39.72 9.65L41.64 9.65Q41.69 9.65 41.71 9.61Q41.73 9.58 41.72 9.53L41.72 9.53L41.66 9.35Q41.55 9.02 41.30 8.83Q41.05 8.64 40.66 8.64L40.66 8.64ZM44.66 14Q44.44 14 44.44 13.85L44.44 13.85Q44.44 13.80 44.49 13.69L44.49 13.69L46.66 10.44Q46.70 10.37 46.66 10.30L46.66 10.30L44.51 7.07Q44.45 7 44.45 6.92L44.45 6.92Q44.45 6.76 44.66 6.76L44.66 6.76L46.61 6.76Q46.82 6.76 46.91 6.93L46.91 6.93L47.91 8.50Q47.98 8.60 48.05 8.50L48.05 8.50L49.06 6.93Q49.17 6.76 49.36 6.76L49.36 6.76L51.45 6.76Q51.66 6.76 51.66 6.92L51.66 6.92Q51.66 7 51.60 7.07L51.60 7.07L49.45 10.30Q49.42 10.37 49.45 10.44L49.45 10.44L51.62 13.69Q51.67 13.80 51.67 13.85L51.67 13.85Q51.67 14 51.45 14L51.45 14L49.50 14Q49.29 14 49.20 13.83L49.20 13.83L48.20 12.26Q48.13 12.17 48.06 12.26L48.06 12.26L47.05 13.83Q46.96 14 46.75 14L46.75 14L44.66 14ZM56.25 14.11Q55.13 14.11 54.29 13.66Q53.44 13.22 52.97 12.40Q52.50 11.59 52.50 10.53L52.50 10.53L52.50 7.66Q52.50 6.59 52.97 5.79Q53.44 4.98 54.29 4.54Q55.13 4.09 56.25 4.09L56.25 4.09Q57.36 4.09 58.21 4.52Q59.07 4.94 59.54 5.68Q60.00 6.43 60.00 7.32L60.00 7.32Q60.00 7.56 59.75 7.56L59.75 7.56L57.93 7.56Q57.68 7.56 57.68 7.48L57.68 7.48L57.68 7.39Q57.68 6.85 57.30 6.46Q56.91 6.08 56.25 6.08L56.25 6.08Q55.61 6.08 55.22 6.50Q54.82 6.92 54.82 7.59L54.82 7.59L54.82 10.60Q54.82 11.27 55.26 11.69Q55.69 12.11 56.35 12.11L56.35 12.11Q56.97 12.11 57.34 11.78Q57.72 11.45 57.72 10.86L57.72 10.86L57.72 10.50Q57.72 10.40 57.62 10.40L57.62 10.40L56.34 10.40Q56.22 10.40 56.15 10.33Q56.08 10.26 56.08 10.15L56.08 10.15L56.08 8.78Q56.08 8.67 56.15 8.60Q56.22 8.53 56.34 8.53L56.34 8.53L59.75 8.53Q59.86 8.53 59.93 8.60Q60.00 8.67 60.00 8.78L60.00 8.78L60.00 10.60Q60.00 11.65 59.54 12.45Q59.07 13.24 58.22 13.68Q57.37 14.11 56.25 14.11L56.25 14.11ZM61.35 14Q61.24 14 61.17 13.93Q61.10 13.86 61.10 13.75L61.10 13.75L61.10 4.45Q61.10 4.34 61.17 4.27Q61.24 4.20 61.35 4.20L61.35 4.20L63.17 4.20Q63.28 4.20 63.35 4.27Q63.42 4.34 63.42 4.45L63.42 4.45L63.42 13.75Q63.42 13.86 63.35 13.93Q63.28 14 63.17 14L63.17 14L61.35 14ZM67.96 14.11Q66.70 14.11 65.82 13.44Q64.95 12.77 64.64 11.62L64.64 11.62Q64.47 11.05 64.47 10.36L64.47 10.36Q64.47 9.66 64.65 9.00L64.65 9.00Q64.97 7.90 65.85 7.27Q66.72 6.65 67.97 6.65L67.97 6.65Q69.20 6.65 70.06 7.27Q70.91 7.90 71.25 8.99L71.25 8.99Q71.44 9.62 71.44 10.33L71.44 10.33Q71.44 10.98 71.29 11.56L71.29 11.56Q70.99 12.74 70.11 13.43Q69.23 14.11 67.96 14.11L67.96 14.11ZM67.96 12.12Q68.36 12.12 68.64 11.87Q68.91 11.61 69.02 11.16L69.02 11.16Q69.10 10.79 69.10 10.36L69.10 10.36Q69.10 9.94 69.01 9.55L69.01 9.55Q68.89 9.11 68.63 8.88Q68.36 8.64 67.96 8.64L67.96 8.64Q67.54 8.64 67.28 8.88Q67.02 9.11 66.91 9.55L66.91 9.55Q66.81 9.86 66.81 10.36L66.81 10.36Q66.81 10.79 66.89 11.16L66.89 11.16Q67.02 11.61 67.28 11.87Q67.55 12.12 67.96 12.12L67.96 12.12ZM79.17 8.58Q79.46 9.35 79.46 10.35L79.46 10.35Q79.46 11.27 79.24 11.96L79.24 11.96Q78.96 12.91 78.19 13.51Q77.42 14.11 76.51 14.11L76.51 14.11Q75.45 14.11 74.91 13.37L74.91 13.37Q74.87 13.31 74.84 13.33Q74.80 13.34 74.80 13.41L74.80 13.41L74.80 13.75Q74.80 13.86 74.73 13.93Q74.66 14 74.55 14L74.55 14L72.73 14Q72.62 14 72.55 13.93Q72.48 13.86 72.48 13.75L72.48 13.75L72.48 4.45Q72.48 4.34 72.55 4.27Q72.62 4.20 72.73 4.20L72.73 4.20L74.55 4.20Q74.66 4.20 74.73 4.27Q74.80 4.34 74.80 4.45L74.80 4.45L74.80 7.24Q74.80 7.31 74.84 7.32Q74.87 7.34 74.91 7.28L74.91 7.28Q75.45 6.64 76.51 6.64L76.51 6.64Q77.41 6.64 78.13 7.17Q78.85 7.71 79.17 8.58L79.17 8.58ZM76.73 11.55Q76.97 11.10 76.97 10.39L76.97 10.39Q76.97 9.63 76.72 9.17L76.72 9.17Q76.43 8.68 75.88 8.68L75.88 8.68Q75.36 8.68 75.07 9.16L75.07 9.16Q74.82 9.62 74.82 10.39L74.82 10.39Q74.82 11.09 75.05 11.54L75.05 11.54Q75.35 12.07 75.88 12.07L75.88 12.07Q76.44 12.07 76.73 11.55L76.73 11.55ZM83.36 6.65Q84.28 6.65 85.04 6.96Q85.79 7.28 86.23 7.83Q86.66 8.39 86.66 9.06L86.66 9.06L86.66 13.75Q86.66 13.86 86.59 13.93Q86.52 14 86.41 14L86.41 14L84.59 14Q84.48 14 84.41 13.93Q84.34 13.86 84.34 13.75L84.34 13.75L84.34 13.47Q84.34 13.40 84.30 13.38Q84.27 13.37 84.22 13.43L84.22 13.43Q83.66 14.11 82.42 14.11L82.42 14.11Q81.31 14.11 80.65 13.59Q80.00 13.06 80.00 12.04L80.00 12.04Q80.00 10.96 80.75 10.37Q81.49 9.79 82.91 9.79L82.91 9.79L84.24 9.79Q84.34 9.79 84.34 9.69L84.34 9.69L84.34 9.45Q84.34 9.07 84.09 8.86Q83.85 8.64 83.40 8.64L83.40 8.64Q83.08 8.64 82.84 8.74Q82.61 8.85 82.52 9.03L82.52 9.03Q82.45 9.13 82.38 9.18Q82.32 9.23 82.22 9.21L82.22 9.21L80.35 8.97Q80.09 8.95 80.12 8.78L80.12 8.78Q80.19 8.18 80.63 7.69Q81.06 7.21 81.77 6.93Q82.47 6.65 83.36 6.65L83.36 6.65ZM83.12 12.45Q83.65 12.45 83.99 12.17Q84.34 11.90 84.34 11.45L84.34 11.45L84.34 11.14Q84.34 11.05 84.24 11.05L84.24 11.05L83.43 11.05Q82.89 11.05 82.61 11.23Q82.32 11.41 82.32 11.77L82.32 11.77Q82.32 12.08 82.53 12.26Q82.74 12.45 83.12 12.45L83.12 12.45ZM88.09 14Q87.98 14 87.91 13.93Q87.84 13.86 87.84 13.75L87.84 13.75L87.84 4.45Q87.84 4.34 87.91 4.27Q87.98 4.20 88.09 4.20L88.09 4.20L89.91 4.20Q90.02 4.20 90.09 4.27Q90.16 4.34 90.16 4.45L90.16 4.45L90.16 13.75Q90.16 13.86 90.09 13.93Q90.02 14 89.91 14L89.91 14L88.09 14ZM97.62 8.88Q97.57 8.90 97.57 8.95Q97.57 8.99 97.62 9.02L97.62 9.02Q98.87 9.67 98.87 11.23L98.87 11.23Q98.87 12.63 97.90 13.31Q96.94 14 95.37 14L95.37 14L91.73 14Q91.62 14 91.55 13.93Q91.48 13.86 91.48 13.75L91.48 13.75L91.48 4.45Q91.48 4.34 91.55 4.27Q91.62 4.20 91.73 4.20L91.73 4.20L95.26 4.20Q96.96 4.20 97.84 4.84Q98.71 5.49 98.71 6.93L98.71 6.93Q98.71 8.30 97.62 8.88L97.62 8.88ZM93.90 6.19Q93.80 6.19 93.80 6.29L93.80 6.29L93.80 7.99Q93.80 8.09 93.90 8.09L93.90 8.09L95.26 8.09Q95.83 8.09 96.14 7.85Q96.45 7.60 96.45 7.15L96.45 7.15Q96.45 6.69 96.14 6.44Q95.83 6.19 95.26 6.19L95.26 6.19L93.90 6.19ZM95.37 12.00Q95.93 12.00 96.24 11.74Q96.54 11.48 96.54 10.99L96.54 10.99Q96.54 10.51 96.24 10.25Q95.94 10.00 95.37 10.00L95.37 10.00L93.90 10.00Q93.80 10.00 93.80 10.09L93.80 10.09L93.80 11.90Q93.80 12.00 93.90 12.00L93.90 12.00L95.37 12.00ZM103.04 6.65Q103.96 6.65 104.72 6.96Q105.48 7.28 105.91 7.83Q106.34 8.39 106.34 9.06L106.34 9.06L106.34 13.75Q106.34 13.86 106.27 13.93Q106.20 14 106.09 14L106.09 14L104.27 14Q104.16 14 104.09 13.93Q104.02 13.86 104.02 13.75L104.02 13.75L104.02 13.47Q104.02 13.40 103.98 13.38Q103.95 13.37 103.91 13.43L103.91 13.43Q103.35 14.11 102.10 14.11L102.10 14.11Q101.00 14.11 100.34 13.59Q99.68 13.06 99.68 12.04L99.68 12.04Q99.68 10.96 100.43 10.37Q101.18 9.79 102.59 9.79L102.59 9.79L103.92 9.79Q104.02 9.79 104.02 9.69L104.02 9.69L104.02 9.45Q104.02 9.07 103.78 8.86Q103.53 8.64 103.08 8.64L103.08 8.64Q102.76 8.64 102.53 8.74Q102.30 8.85 102.20 9.03L102.20 9.03Q102.13 9.13 102.07 9.18Q102.00 9.23 101.91 9.21L101.91 9.21L100.03 8.97Q99.78 8.95 99.81 8.78L99.81 8.78Q99.88 8.18 100.31 7.69Q100.74 7.21 101.45 6.93Q102.16 6.65 103.04 6.65L103.04 6.65ZM102.80 12.45Q103.33 12.45 103.68 12.17Q104.02 11.90 104.02 11.45L104.02 11.45L104.02 11.14Q104.02 11.05 103.92 11.05L103.92 11.05L103.11 11.05Q102.58 11.05 102.29 11.23Q102.00 11.41 102.00 11.77L102.00 11.77Q102.00 12.08 102.21 12.26Q102.42 12.45 102.80 12.45L102.80 12.45ZM111.58 6.65Q112.67 6.65 113.36 7.34Q114.06 8.04 114.06 9.23L114.06 9.23L114.06 13.75Q114.06 13.86 113.99 13.93Q113.92 14 113.81 14L113.81 14L111.99 14Q111.87 14 111.80 13.93Q111.73 13.86 111.73 13.75L111.73 13.75L111.73 9.73Q111.73 9.24 111.47 8.94Q111.22 8.64 110.78 8.64L110.78 8.64Q110.35 8.64 110.08 8.94Q109.82 9.24 109.82 9.73L109.82 9.73L109.82 13.75Q109.82 13.86 109.75 13.93Q109.68 14 109.56 14L109.56 14L107.74 14Q107.63 14 107.56 13.93Q107.49 13.86 107.49 13.75L107.49 13.75L107.49 7.01Q107.49 6.90 107.56 6.83Q107.63 6.76 107.74 6.76L107.74 6.76L109.56 6.76Q109.68 6.76 109.75 6.83Q109.82 6.90 109.82 7.01L109.82 7.01L109.82 7.41Q109.82 7.48 109.85 7.49Q109.89 7.50 109.91 7.45L109.91 7.45Q110.49 6.65 111.58 6.65L111.58 6.65ZM115.44 14Q115.33 14 115.26 13.93Q115.19 13.86 115.19 13.75L115.19 13.75L115.19 4.45Q115.19 4.34 115.26 4.27Q115.33 4.20 115.44 4.20L115.44 4.20L117.26 4.20Q117.38 4.20 117.45 4.27Q117.52 4.34 117.52 4.45L117.52 4.45L117.52 8.67Q117.52 8.74 117.56 8.75Q117.60 8.76 117.64 8.71L117.64 8.71L119.10 6.92Q119.21 6.76 119.41 6.76L119.41 6.76L121.48 6.76Q121.69 6.76 121.69 6.92L121.69 6.92Q121.69 7 121.63 7.07L121.63 7.07L119.90 9.31Q119.84 9.39 119.88 9.45L119.88 9.45L121.93 13.71L121.95 13.82Q121.95 14 121.73 14L121.73 14L119.84 14Q119.63 14 119.55 13.80L119.55 13.80L118.31 10.92Q118.30 10.86 118.25 10.86Q118.20 10.86 118.17 10.91L118.17 10.91L117.56 11.80Q117.52 11.84 117.52 11.93L117.52 11.93L117.52 13.75Q117.52 13.86 117.45 13.93Q117.38 14 117.26 14L117.26 14L115.44 14Z"></path></g><!----><g data-v-423bf9ae="" id="5bebe8b1-30aa-46e1-888d-526b5f630a45" transform="matrix(2.8125,0,0,2.8125,-12.426001459360123,0)" stroke="none" fill="black"><path d="M27.377 11.377L16 0 4.623 11.377 16 22.753l11.377-11.376zM16 6.026l5.35 5.35L16 16.727l-5.35-5.35L16 6.026zM27.426 14.969l-5.664 5.664V32h5.664zM10.238 20.633l-5.664-5.664V32h5.664z"></path></g><!----></svg>