<svg data-v-423bf9ae="" xmlns="http://www.w3.org/2000/svg" viewBox="0 0 691 107" class="iconLeft"><!----><defs data-v-423bf9ae=""><linearGradient data-v-423bf9ae="" gradientTransform="rotate(25)" id="bb1e8443-3da2-42da-bc39-10e16db21f1d" x1="0%" y1="0%" x2="100%" y2="0%"><stop data-v-423bf9ae="" offset="0%" style="stop-color: rgb(32, 72, 79); stop-opacity: 1;"></stop><stop data-v-423bf9ae="" offset="100%" style="stop-color: rgb(78, 155, 171); stop-opacity: 1;"></stop></linearGradient></defs><!----><g data-v-423bf9ae="" id="62b84448-0f88-4cbd-842a-e9b3f741c59e" fill="#ffffff" transform="matrix(6.335797075835233,0,0,6.335797075835233,98.70834775319793,-11.377960343705709)"><path d="M3.91 11.52L3.32 11.33Q2.70 11.12 2.20 10.90Q1.69 10.68 1.33 10.37Q0.97 10.07 0.76 9.64Q0.56 9.21 0.56 8.60L0.56 8.60Q0.56 7.41 1.48 6.69Q2.39 5.98 4.05 5.98L4.05 5.98Q4.65 5.98 5.17 6.06Q5.68 6.15 6.05 6.32Q6.43 6.50 6.64 6.77Q6.85 7.04 6.85 7.41L6.85 7.41Q6.85 7.77 6.68 8.03Q6.51 8.29 6.27 8.47L6.27 8.47Q5.96 8.27 5.45 8.13Q4.93 7.98 4.31 7.98L4.31 7.98Q3.68 7.98 3.39 8.16Q3.09 8.33 3.09 8.60L3.09 8.60Q3.09 8.81 3.28 8.94Q3.46 9.07 3.82 9.18L3.82 9.18L4.56 9.42Q5.88 9.84 6.59 10.49Q7.29 11.14 7.29 12.26L7.29 12.26Q7.29 13.45 6.36 14.19Q5.42 14.92 3.60 14.92L3.60 14.92Q2.95 14.92 2.40 14.82Q1.85 14.71 1.44 14.51Q1.02 14.31 0.79 14.01Q0.56 13.71 0.56 13.31L0.56 13.31Q0.56 12.91 0.80 12.62Q1.04 12.33 1.32 12.18L1.32 12.18Q1.71 12.49 2.27 12.71Q2.84 12.94 3.51 12.94L3.51 12.94Q4.20 12.94 4.48 12.73Q4.76 12.52 4.76 12.24L4.76 12.24Q4.76 11.96 4.54 11.81Q4.31 11.66 3.91 11.52L3.91 11.52ZM10.82 10.25L10.82 12.36Q10.82 12.73 11.05 12.88Q11.28 13.03 11.70 13.03L11.70 13.03Q11.91 13.03 12.14 13.00Q12.36 12.96 12.53 12.91L12.53 12.91Q12.66 13.06 12.75 13.25Q12.84 13.44 12.84 13.71L12.84 13.71Q12.84 14.24 12.44 14.57Q12.04 14.91 11.03 14.91L11.03 14.91Q9.80 14.91 9.13 14.35Q8.47 13.79 8.47 12.53L8.47 12.53L8.47 6.54Q8.62 6.50 8.91 6.45Q9.20 6.40 9.52 6.40L9.52 6.40Q10.14 6.40 10.48 6.62Q10.82 6.83 10.82 7.53L10.82 7.53L10.82 8.43L12.66 8.43Q12.74 8.58 12.82 8.81Q12.89 9.04 12.89 9.32L12.89 9.32Q12.89 9.81 12.68 10.03Q12.46 10.25 12.10 10.25L12.10 10.25L10.82 10.25ZM16.95 13.19L16.95 13.19Q17.19 13.19 17.48 13.14Q17.77 13.09 17.91 13.01L17.91 13.01L17.91 11.89L16.90 11.97Q16.51 12.00 16.25 12.14Q16.00 12.28 16.00 12.56L16.00 12.56Q16.00 12.84 16.22 13.01Q16.44 13.19 16.95 13.19ZM16.84 7.69L16.84 7.69Q17.60 7.69 18.22 7.84Q18.84 7.99 19.29 8.31Q19.73 8.62 19.96 9.11Q20.20 9.59 20.20 10.25L20.20 10.25L20.20 13.38Q20.20 13.75 20.00 13.98Q19.80 14.21 19.52 14.38L19.52 14.38Q18.61 14.92 16.95 14.92L16.95 14.92Q16.21 14.92 15.62 14.78Q15.02 14.64 14.60 14.36Q14.17 14.08 13.94 13.65Q13.71 13.22 13.71 12.64L13.71 12.64Q13.71 11.68 14.28 11.16Q14.85 10.64 16.06 10.51L16.06 10.51L17.89 10.32L17.89 10.22Q17.89 9.81 17.54 9.64Q17.18 9.46 16.51 9.46L16.51 9.46Q15.97 9.46 15.47 9.58Q14.97 9.69 14.56 9.86L14.56 9.86Q14.38 9.73 14.25 9.47Q14.13 9.21 14.13 8.93L14.13 8.93Q14.13 8.57 14.30 8.35Q14.48 8.13 14.84 7.98L14.84 7.98Q15.25 7.83 15.80 7.76Q16.35 7.69 16.84 7.69ZM25.97 13.69L25.97 10.39Q25.97 9.95 25.73 9.75Q25.48 9.55 25.06 9.55L25.06 9.55Q24.78 9.55 24.51 9.62Q24.23 9.69 24.04 9.83L24.04 9.83L24.04 14.69Q23.90 14.73 23.60 14.77Q23.30 14.81 22.97 14.81L22.97 14.81Q22.67 14.81 22.42 14.77Q22.18 14.73 22.01 14.60Q21.84 14.48 21.75 14.26Q21.66 14.04 21.66 13.69L21.66 13.69L21.66 9.49Q21.66 9.11 21.82 8.88Q21.98 8.64 22.26 8.44L22.26 8.44Q22.74 8.11 23.46 7.90Q24.18 7.69 25.06 7.69L25.06 7.69Q26.64 7.69 27.50 8.38Q28.35 9.07 28.35 10.30L28.35 10.30L28.35 14.69Q28.21 14.73 27.91 14.77Q27.61 14.81 27.29 14.81L27.29 14.81Q26.98 14.81 26.73 14.77Q26.49 14.73 26.32 14.60Q26.15 14.48 26.06 14.26Q25.97 14.04 25.97 13.69L25.97 13.69ZM29.85 13.05L29.85 5.59Q29.99 5.54 30.30 5.50Q30.60 5.45 30.93 5.45L30.93 5.45Q31.23 5.45 31.48 5.49Q31.72 5.53 31.89 5.66Q32.06 5.78 32.14 6.00Q32.23 6.22 32.23 6.57L32.23 6.57L32.23 7.94Q32.58 7.80 32.89 7.74Q33.21 7.69 33.59 7.69L33.59 7.69Q34.26 7.69 34.86 7.92Q35.46 8.16 35.92 8.62Q36.39 9.07 36.65 9.74Q36.92 10.42 36.92 11.30L36.92 11.30Q36.92 12.21 36.64 12.89Q36.37 13.57 35.88 14.01Q35.39 14.46 34.69 14.69Q33.98 14.92 33.12 14.92L33.12 14.92Q32.20 14.92 31.56 14.71Q30.91 14.49 30.46 14.17L30.46 14.17Q29.85 13.73 29.85 13.05L29.85 13.05ZM33.12 13.05L33.12 13.05Q33.77 13.05 34.13 12.61Q34.48 12.17 34.48 11.30L34.48 11.30Q34.48 10.42 34.12 9.98Q33.75 9.55 33.14 9.55L33.14 9.55Q32.86 9.55 32.66 9.60Q32.45 9.66 32.21 9.77L32.21 9.77L32.21 12.82Q32.37 12.92 32.59 12.99Q32.80 13.05 33.12 13.05ZM41.68 14.92L41.68 14.92Q40.85 14.92 40.14 14.69Q39.44 14.46 38.91 14.00Q38.39 13.54 38.09 12.84Q37.79 12.14 37.79 11.20L37.79 11.20Q37.79 10.28 38.09 9.61Q38.39 8.95 38.88 8.52Q39.37 8.09 40.00 7.89Q40.63 7.69 41.29 7.69L41.29 7.69Q42.03 7.69 42.64 7.91Q43.25 8.13 43.69 8.53Q44.13 8.92 44.37 9.46Q44.62 10.01 44.62 10.65L44.62 10.65Q44.62 11.13 44.35 11.38Q44.09 11.63 43.61 11.70L43.61 11.70L40.15 12.22Q40.31 12.68 40.78 12.92Q41.26 13.15 41.87 13.15L41.87 13.15Q42.45 13.15 42.96 13.00Q43.47 12.85 43.79 12.66L43.79 12.66Q44.02 12.80 44.17 13.05Q44.32 13.30 44.32 13.58L44.32 13.58Q44.32 14.21 43.74 14.52L43.74 14.52Q43.29 14.76 42.73 14.84Q42.17 14.92 41.68 14.92ZM41.29 9.42L41.29 9.42Q40.95 9.42 40.70 9.53Q40.46 9.65 40.31 9.82Q40.15 10.00 40.07 10.21Q40.00 10.43 39.98 10.65L39.98 10.65L42.38 10.26Q42.34 9.98 42.07 9.70Q41.80 9.42 41.29 9.42ZM47.19 11.20L45.32 9.00Q45.43 8.47 45.76 8.13Q46.09 7.80 46.58 7.80L46.58 7.80Q47.04 7.80 47.29 8.02Q47.54 8.25 47.85 8.65L47.85 8.65L48.75 9.83L50.25 7.80Q51.02 7.80 51.46 8.07Q51.91 8.34 51.91 8.81L51.91 8.81Q51.91 8.99 51.86 9.14Q51.81 9.28 51.72 9.44Q51.62 9.59 51.46 9.79Q51.31 9.98 51.10 10.25L51.10 10.25L50.18 11.28L52.01 13.71Q51.94 14.24 51.59 14.55Q51.24 14.85 50.75 14.85L50.75 14.85Q50.22 14.84 49.90 14.55Q49.59 14.25 49.29 13.83L49.29 13.83L48.54 12.75L47.11 14.81Q47.04 14.81 46.96 14.82Q46.87 14.83 46.82 14.83L46.82 14.83Q46.10 14.83 45.73 14.53Q45.36 14.24 45.36 13.80L45.36 13.80Q45.36 13.47 45.52 13.21Q45.68 12.95 46.07 12.50L46.07 12.50L47.19 11.20ZM60.83 10.46L60.83 13.31Q60.83 13.75 60.68 13.96Q60.52 14.17 60.19 14.36L60.19 14.36Q59.99 14.48 59.70 14.58Q59.40 14.69 59.05 14.76Q58.70 14.84 58.32 14.88Q57.93 14.92 57.55 14.92L57.55 14.92Q56.55 14.92 55.66 14.65Q54.78 14.38 54.13 13.83Q53.48 13.27 53.10 12.45Q52.72 11.62 52.72 10.53L52.72 10.53Q52.72 9.38 53.14 8.53Q53.55 7.67 54.23 7.11Q54.91 6.54 55.78 6.26Q56.66 5.98 57.58 5.98L57.58 5.98Q58.91 5.98 59.69 6.41Q60.47 6.83 60.47 7.52L60.47 7.52Q60.47 7.88 60.28 8.15Q60.10 8.41 59.86 8.57L59.86 8.57Q59.51 8.36 58.99 8.16Q58.46 7.95 57.81 7.95L57.81 7.95Q56.63 7.95 55.94 8.62Q55.24 9.30 55.24 10.49L55.24 10.49Q55.24 11.13 55.43 11.60Q55.62 12.07 55.94 12.37Q56.27 12.67 56.69 12.82Q57.11 12.96 57.58 12.96L57.58 12.96Q57.89 12.96 58.13 12.91Q58.37 12.85 58.49 12.78L58.49 12.78L58.49 11.47L56.99 11.47Q56.91 11.31 56.83 11.06Q56.76 10.81 56.76 10.53L56.76 10.53Q56.76 10.02 56.99 9.80Q57.22 9.58 57.58 9.58L57.58 9.58L59.95 9.58Q60.37 9.58 60.60 9.81Q60.83 10.04 60.83 10.46L60.83 10.46ZM64.82 11.24L64.82 12.95Q65.02 13.01 65.32 13.03Q65.63 13.05 65.91 13.05L65.91 13.05Q66.47 13.05 66.84 12.82Q67.21 12.59 67.21 12.10L67.21 12.10Q67.21 11.63 66.91 11.44Q66.60 11.24 65.97 11.24L65.97 11.24L64.82 11.24ZM64.82 7.88L64.82 9.53L65.84 9.53Q66.44 9.53 66.72 9.31Q66.99 9.09 66.99 8.65L66.99 8.65Q66.99 8.27 66.67 8.05Q66.36 7.83 65.73 7.83L65.73 7.83Q65.52 7.83 65.25 7.84Q64.97 7.85 64.82 7.88L64.82 7.88ZM65.73 14.92L65.73 14.92Q65.49 14.92 65.17 14.91Q64.85 14.90 64.50 14.85Q64.16 14.81 63.83 14.75Q63.49 14.69 63.21 14.57L63.21 14.57Q62.44 14.28 62.44 13.55L62.44 13.55L62.44 7.01Q62.44 6.72 62.60 6.56Q62.76 6.40 63.04 6.30L63.04 6.30Q63.52 6.13 64.23 6.06Q64.95 5.98 65.70 5.98L65.70 5.98Q67.49 5.98 68.46 6.58Q69.43 7.18 69.43 8.44L69.43 8.44Q69.43 9.07 69.06 9.53Q68.70 9.98 68.08 10.19L68.08 10.19Q68.78 10.39 69.25 10.91Q69.72 11.42 69.72 12.21L69.72 12.21Q69.72 13.59 68.69 14.26Q67.66 14.92 65.73 14.92ZM73.84 13.19L73.84 13.19Q74.07 13.19 74.36 13.14Q74.65 13.09 74.79 13.01L74.79 13.01L74.79 11.89L73.78 11.97Q73.39 12.00 73.14 12.14Q72.88 12.28 72.88 12.56L72.88 12.56Q72.88 12.84 73.10 13.01Q73.32 13.19 73.84 13.19ZM73.72 7.69L73.72 7.69Q74.48 7.69 75.10 7.84Q75.73 7.99 76.17 8.31Q76.61 8.62 76.85 9.11Q77.08 9.59 77.08 10.25L77.08 10.25L77.08 13.38Q77.08 13.75 76.88 13.98Q76.68 14.21 76.40 14.38L76.40 14.38Q75.49 14.92 73.84 14.92L73.84 14.92Q73.09 14.92 72.50 14.78Q71.90 14.64 71.48 14.36Q71.05 14.08 70.82 13.65Q70.59 13.22 70.59 12.64L70.59 12.64Q70.59 11.68 71.16 11.16Q71.74 10.64 72.94 10.51L72.94 10.51L74.77 10.32L74.77 10.22Q74.77 9.81 74.42 9.64Q74.06 9.46 73.39 9.46L73.39 9.46Q72.86 9.46 72.35 9.58Q71.85 9.69 71.44 9.86L71.44 9.86Q71.26 9.73 71.13 9.47Q71.01 9.21 71.01 8.93L71.01 8.93Q71.01 8.57 71.18 8.35Q71.36 8.13 71.72 7.98L71.72 7.98Q72.13 7.83 72.68 7.76Q73.23 7.69 73.72 7.69ZM82.85 13.69L82.85 10.39Q82.85 9.95 82.61 9.75Q82.36 9.55 81.94 9.55L81.94 9.55Q81.66 9.55 81.39 9.62Q81.12 9.69 80.92 9.83L80.92 9.83L80.92 14.69Q80.78 14.73 80.48 14.77Q80.18 14.81 79.86 14.81L79.86 14.81Q79.55 14.81 79.30 14.77Q79.06 14.73 78.89 14.60Q78.72 14.48 78.63 14.26Q78.54 14.04 78.54 13.69L78.54 13.69L78.54 9.49Q78.54 9.11 78.70 8.88Q78.86 8.64 79.14 8.44L79.14 8.44Q79.62 8.11 80.34 7.90Q81.06 7.69 81.94 7.69L81.94 7.69Q83.52 7.69 84.38 8.38Q85.23 9.07 85.23 10.30L85.23 10.30L85.23 14.69Q85.09 14.73 84.79 14.77Q84.49 14.81 84.17 14.81L84.17 14.81Q83.86 14.81 83.61 14.77Q83.37 14.73 83.20 14.60Q83.03 14.48 82.94 14.26Q82.85 14.04 82.85 13.69L82.85 13.69ZM91.11 11.23L93.35 13.47Q93.28 14.13 92.97 14.48Q92.65 14.83 92.05 14.83L92.05 14.83Q91.60 14.83 91.25 14.61Q90.90 14.39 90.50 13.87L90.50 13.87L89.11 12.14L89.11 14.69Q88.96 14.71 88.66 14.76Q88.35 14.81 88.05 14.81L88.05 14.81Q87.74 14.81 87.49 14.77Q87.25 14.73 87.08 14.60Q86.91 14.48 86.82 14.26Q86.73 14.04 86.73 13.69L86.73 13.69L86.73 5.59Q86.88 5.54 87.19 5.50Q87.49 5.45 87.79 5.45L87.79 5.45Q88.10 5.45 88.35 5.49Q88.59 5.53 88.76 5.66Q88.93 5.78 89.02 6.00Q89.11 6.22 89.11 6.57L89.11 6.57L89.11 10.26L91.52 7.80Q92.25 7.80 92.69 8.12Q93.13 8.44 93.13 8.93L93.13 8.93Q93.13 9.14 93.06 9.32Q92.99 9.49 92.84 9.67Q92.69 9.86 92.46 10.06Q92.23 10.26 91.92 10.53L91.92 10.53L91.11 11.23Z"></path></g><!----><g data-v-423bf9ae="" id="cb158a92-666a-4ddb-8d63-00aed8526074" transform="matrix(1.0868111504448785,0,0,1.0868111504448785,-13.255261890115804,-0.23894260335429607)" stroke="none" fill="#ffffff"><g clip-rule="evenodd"><path d="M12.983 10.59l17.018 88.223-5.872-59.049 29.021-1.892-.054-9.883L64.549 1 53.622 18.977z"></path><path d="M59.389 54.548l5.16-53.541-8.74 39.716-19.612 1.045 1.57 20.462-7.766 36.583 12.057-39.899z"></path><path d="M62.8 67.182l.549-10.453-15.979 3.755-.032 11.797-17.337 26.532 21.68-27.616zM65.711 62.394l14.841-4.731 1.509-12.532-15.899 2.095zM72.07 44.502l10.988-1.417 1.581-10.278-8.079-.373L64.549 1l8.43 30.967z"></path><path d="M87.413 31.294l1.256-9.506-9.544-2.694L64.549 1l14.483 22.437-.422 7z"></path></g></g><!----></svg>